# xmcd
#
# Track frame offsets: 
#        150
#        4075
#        24690
#        45598
#        63428
#        79715
#        98537
#        125093
#        144848
#        165600
#        175150
#        200854
#
# Disc length: 2939 seconds
#
# Revision: 4
# Processed by: cddbd v1.5.2PL0 Copyright (c) Steve Scherf et al.
# Submitted via: ExactAudioCopyFreeDBPlugin 1.0
#
DISCID=9a0b790c
DTITLE=Ying Yang Twins - U.S.A. Still United
DYEAR=2005
DGENRE=Rap
TTITLE0=Mr.Collipark's (Intro)
TTITLE1=Wiggle Then Move
TTITLE2=Ying Yang Twins feat. Bubba Sparxxx, Mr. Collipark - Ms. New B
TTITLE2=ooty
TTITLE3=Ying Yang Twins feat. Bun B - Git It
TTITLE4=Ying Yang Twins feat. Da Muzicianz - Get Yern
TTITLE5=The Pink
TTITLE6=Ying Yang Twins feat. Three 6 Mafia - 4 Oz.
TTITLE7=Ying Yang Twins feat. Homebwoi, Kadalack Boyz - Legendary Stat
TTITLE7=us
TTITLE8=Ying Yang Twins feat. Avant - Bedroom Boom
TTITLE9=Duts
TTITLE10=Wait (The Whisper Song) (Ultimix Remix)
TTITLE11=Ying Yang Twins feat. Pitbull, Elephant Man - Shake (Remix)
EXTD=www.RapMusicGuide.com
EXTT0=
EXTT1=
EXTT2=
EXTT3=
EXTT4=
EXTT5=
EXTT6=
EXTT7=
EXTT8=
EXTT9=
EXTT10=
EXTT11=
PLAYORDER=
